<?xml version="1.0" standalone="no"?><!DOCTYPE svg PUBLIC "-//W3C//DTD SVG 1.1//EN" "http://www.w3.org/Graphics/SVG/1.1/DTD/svg11.dtd"><svg class="icon" height="512" viewBox="0 0 1024 1024" version="1.1" xmlns="http://www.w3.org/2000/svg"><path d="M512 66.2528C265.8304 66.2528 66.2528 265.8304 66.2528 512S265.8304 957.7472 512 957.7472 957.7472 758.1696 957.7472 512 758.1696 66.2528 512 66.2528zM394.9568 365.568c13.824-52.9408 61.1328-91.9552 117.248-91.9552s103.424 39.0144 117.3504 91.9552c0 0 0 11.3664-15.6672 11.3664s-18.432-11.3664-18.432-11.3664c-12.6976-34.304-45.1584-58.7776-83.2512-58.7776s-70.5536 24.4736-83.2512 58.7776c0 0-2.4576 9.9328-18.6368 9.9328S394.9568 365.568 394.9568 365.568zM750.2848 709.9392c0 22.2208-17.8176 40.448-39.5264 40.448L313.2416 750.3872c-21.7088 0-39.5264-18.2272-39.5264-40.448L273.7152 508.0064c0-12.0832 3.072-15.1552 15.1552-15.1552l72.704 0c10.752 0 13.6192 1.7408 13.6192 13.5168l0 1.6384c-0.1024 11.0592 8.8064 20.0704 19.8656 20.1728l15.872 0c11.0592-0.1024 19.8656-9.216 19.7632-20.1728l0-2.56c0-10.0352 2.9696-12.5952 14.1312-12.5952l137.1136 0c8.8064 0 11.264 2.3552 11.264 11.1616l0 3.9936c-0.1024 11.0592 8.704 20.0704 19.7632 20.1728l15.36 0c11.0592-0.1024 19.8656-9.216 19.7632-20.1728l0-4.3008c0-9.0112 2.8672-10.8544 13.5168-10.8544l76.5952 0c8.3968 0 12.1856 3.072 12.1856 12.0832L750.2848 709.9392 750.2848 709.9392zM388.4032 491.008l0-24.3712c0-10.8544 6.656-19.7632 14.7456-19.7632s14.7456 8.9088 14.7456 19.7632l0 24.3712c0 10.8544-6.656 19.7632-14.7456 19.7632S388.4032 501.8624 388.4032 491.008zM606.0032 491.008l0-24.3712c0-10.8544 6.656-19.7632 14.7456-19.7632s14.7456 8.9088 14.7456 19.7632l0 24.3712c0 10.8544-6.656 19.7632-14.7456 19.7632S606.0032 501.8624 606.0032 491.008L606.0032 491.008zM750.2848 449.7408c0 10.0352-2.9696 12.9024-13.2096 12.9024l-76.0832 0c-9.728 0-13.0048-1.6384-13.0048-11.5712L647.9872 447.488c0.1024-11.0592-8.704-20.0704-19.7632-20.1728l-15.36 0c-11.0592 0.1024-19.8656 9.216-19.7632 20.1728l0 4.5056c0 9.3184-1.024 10.6496-11.0592 10.6496L444.2112 462.6432c-10.8544 0-13.6192-1.024-13.6192-12.1856L430.592 447.488c0.1024-11.0592-8.704-20.0704-19.7632-20.1728l-15.7696 0c-11.0592 0.1024-19.8656 9.216-19.7632 20.1728l0 2.7648c0 11.1616-2.6624 12.3904-14.1312 12.3904l-71.8848 0c-12.1856 0-15.4624-2.8672-15.4624-14.336l0-21.1968c0-22.2208 17.8176-40.448 39.5264-40.448l397.5168 0c21.7088 0 39.5264 18.2272 39.5264 40.448L750.3872 449.7408 750.2848 449.7408z" /></svg>